<svg width="24" height="28" viewBox="0 0 24 28" fill="none" xmlns="http://www.w3.org/2000/svg">
<path d="M9.52796 2.33057C9.72717 1.83818 10.0689 1.41651 10.5093 1.1196C10.9497 0.822684 11.4688 0.664062 12 0.664062C12.5311 0.664063 13.0502 0.822684 13.4906 1.1196C13.931 1.41651 14.2727 1.83818 14.472 2.33057C16.4436 2.87281 18.1828 4.04731 19.4223 5.67368C20.6618 7.30005 21.3332 9.28836 21.3333 11.3332V17.5959L23.776 21.2599C23.9099 21.4607 23.9869 21.6941 23.9986 21.9352C24.0103 22.1763 23.9563 22.4161 23.8425 22.6289C23.7286 22.8418 23.5591 23.0197 23.352 23.1437C23.1449 23.2678 22.908 23.3333 22.6666 23.3332H16.62C16.4594 24.444 15.904 25.4598 15.0556 26.1945C14.2071 26.9292 13.1223 27.3335 12 27.3335C10.8776 27.3335 9.79284 26.9292 8.94435 26.1945C8.09587 25.4598 7.54049 24.444 7.37996 23.3332H1.33329C1.0919 23.3333 0.855026 23.2678 0.647944 23.1437C0.440861 23.0197 0.271336 22.8418 0.157457 22.6289C0.0435772 22.4161 -0.0103851 22.1763 0.00132632 21.9352C0.0130378 21.6941 0.0899838 21.4607 0.223956 21.2599L2.66662 17.5959V11.3332C2.66662 7.03456 5.57329 3.41323 9.52796 2.33057ZM10.1146 23.3332C10.2523 23.7234 10.5077 24.0613 10.8455 24.3003C11.1832 24.5393 11.5868 24.6676 12.0006 24.6676C12.4144 24.6676 12.818 24.5393 13.1558 24.3003C13.4936 24.0613 13.7489 23.7234 13.8866 23.3332H10.1133H10.1146ZM12 4.66657C10.2318 4.66657 8.53615 5.36894 7.28591 6.61919C6.03567 7.86943 5.33329 9.56512 5.33329 11.3332V17.9999C5.33335 18.2633 5.2554 18.5208 5.10929 18.7399L3.82529 20.6666H20.1733L18.8893 18.7399C18.7436 18.5206 18.6662 18.2631 18.6666 17.9999V11.3332C18.6666 9.56512 17.9642 7.86943 16.714 6.61919C15.4638 5.36894 13.7681 4.66657 12 4.66657Z" fill="white"/>
</svg>
