<svg width="31" height="30" viewBox="0 0 31 30" fill="none" xmlns="http://www.w3.org/2000/svg">
<path d="M23.5 0.333008H7.49998C5.73252 0.335125 4.03806 1.03818 2.78827 2.28797C1.53849 3.53775 0.83543 5.23221 0.833313 6.99967V17.6663C0.835252 19.2026 1.36677 20.6913 2.33827 21.8813C3.30977 23.0714 4.66186 23.8902 6.16665 24.1997V28.333C6.16661 28.5744 6.23211 28.8113 6.35615 29.0184C6.48019 29.2254 6.65812 29.395 6.87096 29.5088C7.0838 29.6227 7.32356 29.6767 7.56467 29.665C7.80578 29.6533 8.03918 29.5763 8.23998 29.4423L15.9 24.333H23.5C25.2674 24.3309 26.9619 23.6278 28.2117 22.378C29.4615 21.1283 30.1645 19.4338 30.1666 17.6663V6.99967C30.1645 5.23221 29.4615 3.53775 28.2117 2.28797C26.9619 1.03818 25.2674 0.335125 23.5 0.333008ZM20.8333 16.333H10.1666C9.81302 16.333 9.47389 16.1925 9.22384 15.9425C8.97379 15.6924 8.83331 15.3533 8.83331 14.9997C8.83331 14.6461 8.97379 14.3069 9.22384 14.0569C9.47389 13.8068 9.81302 13.6663 10.1666 13.6663H20.8333C21.1869 13.6663 21.5261 13.8068 21.7761 14.0569C22.0262 14.3069 22.1666 14.6461 22.1666 14.9997C22.1666 15.3533 22.0262 15.6924 21.7761 15.9425C21.5261 16.1925 21.1869 16.333 20.8333 16.333ZM23.5 10.9997H7.49998C7.14636 10.9997 6.80722 10.8592 6.55717 10.6091C6.30712 10.3591 6.16665 10.02 6.16665 9.66634C6.16665 9.31272 6.30712 8.97358 6.55717 8.72353C6.80722 8.47348 7.14636 8.33301 7.49998 8.33301H23.5C23.8536 8.33301 24.1927 8.47348 24.4428 8.72353C24.6928 8.97358 24.8333 9.31272 24.8333 9.66634C24.8333 10.02 24.6928 10.3591 24.4428 10.6091C24.1927 10.8592 23.8536 10.9997 23.5 10.9997Z" fill="white"/>
</svg>
