<svg width="40" height="40" viewBox="0 0 40 40" fill="none" xmlns="http://www.w3.org/2000/svg">
<path fill-rule="evenodd" clip-rule="evenodd" d="M32.3738 9.04109C32.7643 8.65057 32.7643 8.0174 32.3738 7.62688C31.9832 7.23635 31.3501 7.23635 30.9595 7.62688L20 18.5864L9.04042 7.62688C8.6499 7.23635 8.01673 7.23635 7.62621 7.62688C7.23568 8.0174 7.23568 8.65057 7.62621 9.04109L18.5858 20.0007L7.62621 30.9602C7.23568 31.3507 7.23568 31.9839 7.62621 32.3744C8.01673 32.7649 8.6499 32.7649 9.04042 32.3744L20 21.4149L30.9595 32.3744C31.3501 32.7649 31.9832 32.7649 32.3738 32.3744C32.7643 31.9839 32.7643 31.3507 32.3738 30.9602L21.4142 20.0007L32.3738 9.04109Z" fill="white"/>
</svg>
