<svg width="33" height="32" viewBox="0 0 33 32" fill="none" xmlns="http://www.w3.org/2000/svg">
<path d="M25.048 18.4896C24.721 18.4897 24.3971 18.4254 24.0949 18.3003C23.7927 18.1753 23.5181 17.9919 23.2868 17.7607C23.0555 17.5296 22.8719 17.2551 22.7467 16.953C22.6214 16.6509 22.5569 16.327 22.5568 16C22.5567 15.6729 22.621 15.3491 22.7461 15.0469C22.8711 14.7447 23.0545 14.4701 23.2857 14.2388C23.5168 14.0074 23.7913 13.8239 24.0934 13.6987C24.3955 13.5734 24.7194 13.5089 25.0464 13.5088C25.7069 13.5086 26.3404 13.7708 26.8076 14.2376C27.2748 14.7045 27.5374 15.3379 27.5376 15.9984C27.5378 16.6589 27.2756 17.2924 26.8087 17.7596C26.3419 18.2268 25.7085 18.4894 25.048 18.4896Z" fill="white"/>
<path d="M14.0112 16.0003C14.0112 17.3753 15.1258 18.4899 16.5008 18.4899C17.8758 18.4899 18.9904 17.3753 18.9904 16.0003C18.9904 14.6254 17.8758 13.5107 16.5008 13.5107C15.1258 13.5107 14.0112 14.6254 14.0112 16.0003Z" fill="white"/>
<path d="M5.46239 16.0003C5.46239 17.3753 6.57702 18.4899 7.95199 18.4899C9.32696 18.4899 10.4416 17.3753 10.4416 16.0003C10.4416 14.6254 9.32696 13.5107 7.95199 13.5107C6.57702 13.5107 5.46239 14.6254 5.46239 16.0003Z" fill="white"/>
</svg>
