<svg width="40" height="40" viewBox="0 0 40 40" fill="none" xmlns="http://www.w3.org/2000/svg">
<rect width="40" height="40" rx="20" fill="#1A1D2A"/>
<path d="M24.474 13.4078L26.592 15.5248M25.836 11.5428L20.109 17.2698C19.8131 17.5653 19.6113 17.9418 19.529 18.3518L19 20.9998L21.648 20.4698C22.058 20.3878 22.434 20.1868 22.73 19.8908L28.457 14.1638C28.6291 13.9917 28.7656 13.7874 28.8588 13.5626C28.9519 13.3377 28.9998 13.0967 28.9998 12.8533C28.9998 12.6099 28.9519 12.3689 28.8588 12.1441C28.7656 11.9192 28.6291 11.7149 28.457 11.5428C28.2849 11.3707 28.0806 11.2342 27.8557 11.1411C27.6309 11.0479 27.3899 11 27.1465 11C26.9031 11 26.6621 11.0479 26.4373 11.1411C26.2124 11.2342 26.0081 11.3707 25.836 11.5428Z" stroke="white" stroke-width="2" stroke-linecap="round" stroke-linejoin="round"/>
<path d="M27 23V26C27 26.5304 26.7893 27.0391 26.4142 27.4142C26.0391 27.7893 25.5304 28 25 28H14C13.4696 28 12.9609 27.7893 12.5858 27.4142C12.2107 27.0391 12 26.5304 12 26V15C12 14.4696 12.2107 13.9609 12.5858 13.5858C12.9609 13.2107 13.4696 13 14 13H17" stroke="white" stroke-width="2" stroke-linecap="round" stroke-linejoin="round"/>
<rect x="0.5" y="0.5" width="39" height="39" rx="19.5" stroke="white" stroke-opacity="0.1"/>
</svg>
