<svg width="141" height="141" fill="none" xmlns="http://www.w3.org/2000/svg"><rect x="34" y="23" width="73" height="100" rx="4" stroke="#B0B0B8"></rect><rect x="40" y="31" width="61" height="84" rx="4" fill="none" fill-opacity="0.12"></rect><path d="M91 56H50M91 67H50M73 78H50" stroke="#B0B0B8" stroke-linecap="round"></path><path d="M76.376 25H63.624a.584.584 0 0 1-.441-.213.79.79 0 0 1-.183-.513v-3.548a.79.79 0 0 1 .183-.513.584.584 0 0 1 .44-.213h12.753c.165 0 .324.077.441.213.117.136.183.32.183.513v3.548a.791.791 0 0 1-.183.513.584.584 0 0 1-.44.213Z" fill="#B0B0B8"></path><path d="M72.355 18.944a2.444 2.444 0 1 1-4.887 0 2.444 2.444 0 0 1 4.887 0Z" stroke="#B0B0B8"></path><defs><linearGradient id="document_svg__a" x1="70.5" y1="31" x2="70.5" y2="115" gradientUnits="userSpaceOnUse"><stop stop-color="#fff"></stop><stop offset="1" stop-color="#fff" stop-opacity="0"></stop></linearGradient></defs></svg>