<svg width="41" height="38" viewBox="0 0 41 38" fill="none" xmlns="http://www.w3.org/2000/svg">
<g filter="url(#filter0_dd_2359_9001)">
<path d="M31 15.8125C31 22.375 21.2697 27.6869 20.8553 27.9062C20.7461 27.965 20.624 27.9958 20.5 27.9958C20.376 27.9958 20.2539 27.965 20.1447 27.9062C19.7303 27.6869 10 22.375 10 15.8125C10.0017 14.2715 10.6147 12.794 11.7044 11.7044C12.794 10.6147 14.2715 10.0017 15.8125 10C17.7484 10 19.4434 10.8325 20.5 12.2397C21.5566 10.8325 23.2516 10 25.1875 10C26.7285 10.0017 28.206 10.6147 29.2956 11.7044C30.3853 12.794 30.9983 14.2715 31 15.8125Z" fill="white"/>
</g>
<defs>
<filter id="filter0_dd_2359_9001" x="0" y="0" width="41" height="37.9961" filterUnits="userSpaceOnUse" color-interpolation-filters="sRGB">
<feFlood flood-opacity="0" result="BackgroundImageFix"/>
<feColorMatrix in="SourceAlpha" type="matrix" values="0 0 0 0 0 0 0 0 0 0 0 0 0 0 0 0 0 0 127 0" result="hardAlpha"/>
<feOffset dx="2" dy="2"/>
<feGaussianBlur stdDeviation="4"/>
<feComposite in2="hardAlpha" operator="out"/>
<feColorMatrix type="matrix" values="0 0 0 0 0 0 0 0 0 0 0 0 0 0 0 0 0 0 0.15 0"/>
<feBlend mode="normal" in2="BackgroundImageFix" result="effect1_dropShadow_2359_9001"/>
<feColorMatrix in="SourceAlpha" type="matrix" values="0 0 0 0 0 0 0 0 0 0 0 0 0 0 0 0 0 0 127 0" result="hardAlpha"/>
<feOffset dx="-2" dy="-2"/>
<feGaussianBlur stdDeviation="4"/>
<feComposite in2="hardAlpha" operator="out"/>
<feColorMatrix type="matrix" values="0 0 0 0 0 0 0 0 0 0 0 0 0 0 0 0 0 0 0.15 0"/>
<feBlend mode="normal" in2="effect1_dropShadow_2359_9001" result="effect2_dropShadow_2359_9001"/>
<feBlend mode="normal" in="SourceGraphic" in2="effect2_dropShadow_2359_9001" result="shape"/>
</filter>
</defs>
</svg>
