<svg width="28" height="25" viewBox="0 0 28 25" fill="none" xmlns="http://www.w3.org/2000/svg">
<path d="M3.36498 8.08056L4.97248 21.7493L23.0275 21.7493L24.635 8.08056L19.6225 11.4218L14 3.55056L8.37748 11.4218L3.36498 8.08056ZM2.50123 4.49931L7.74998 7.99931L12.9825 0.67431C13.0981 0.512271 13.2508 0.380191 13.4277 0.289062C13.6047 0.197933 13.8009 0.150391 14 0.150391C14.199 0.150391 14.3952 0.197933 14.5722 0.289062C14.7492 0.380191 14.9018 0.512271 15.0175 0.67431L20.25 7.99931L25.5 4.49931C25.6987 4.36712 25.931 4.29457 26.1697 4.29023C26.4083 4.28589 26.6431 4.34995 26.8465 4.47484C27.0499 4.59972 27.2132 4.78021 27.3173 4.99498C27.4213 5.20975 27.4618 5.44981 27.4337 5.68681L25.38 23.1456C25.3442 23.4496 25.198 23.73 24.9692 23.9334C24.7404 24.1369 24.4449 24.2493 24.1387 24.2493L3.86123 24.2493C3.55506 24.2493 3.25956 24.1369 3.03076 23.9334C2.80197 23.73 2.6558 23.4496 2.61998 23.1456L0.566229 5.68556C0.538479 5.44866 0.579085 5.20877 0.683255 4.99421C0.787424 4.77964 0.950807 4.59936 1.15412 4.47464C1.35743 4.34992 1.59218 4.28597 1.83065 4.29034C2.06913 4.29471 2.30138 4.36722 2.49998 4.49931L2.50123 4.49931ZM14 16.7493C13.3369 16.7493 12.7011 16.4859 12.2322 16.0171C11.7634 15.5482 11.5 14.9124 11.5 14.2493C11.5 13.5863 11.7634 12.9504 12.2322 12.4815C12.7011 12.0127 13.3369 11.7493 14 11.7493C14.663 11.7493 15.2989 12.0127 15.7677 12.4815C16.2366 12.9504 16.5 13.5863 16.5 14.2493C16.5 14.9124 16.2366 15.5482 15.7677 16.0171C15.2989 16.4859 14.663 16.7493 14 16.7493Z" fill="black"/>
</svg>
