<svg width="64" height="65" viewBox="0 0 64 65" fill="none" xmlns="http://www.w3.org/2000/svg">
<g clip-path="url(#clip0_1102_12591)">
<path d="M60 44H64V65H60V44Z" fill="#AA2200"/>
<path d="M0 0H21V4H0V0Z" fill="#AA2200"/>
<path d="M64 65L0 0.00868713L0.00856018 0H22.7288C23.3405 0.000187398 23.9462 0.122743 24.5113 0.360666C25.0764 0.59859 25.5897 0.947221 26.0221 1.38665L62.6356 38.5667C63.5091 39.4537 63.9999 40.6568 64 41.9112V65Z" fill="#FF0000"/>
<path d="M17.7651 11.9681L18.8524 13.0553L20.9767 10.931L23.1839 13.1382L21.0596 15.2625L22.1444 16.3473L27.287 11.2047L26.2022 10.1199L24.0804 12.2418L21.8732 10.0346L23.995 7.91275L22.9077 6.82547L17.7651 11.9681ZM30.3379 19.3982C32.0203 17.7158 31.9349 15.712 30.5714 14.3485C29.2004 12.9775 27.2041 12.8997 25.5217 14.5821C23.8468 16.2569 23.9172 18.2607 25.2882 19.6317C26.6517 20.9952 28.6555 21.0806 30.3379 19.3982ZM29.2355 18.2959C28.1457 19.3857 27.0384 19.4585 26.2499 18.67C25.4589 17.879 25.5343 16.7742 26.6241 15.6844C27.7138 14.5946 28.8187 14.5193 29.6097 15.3103C30.3981 16.0987 30.3253 17.2061 29.2355 18.2959ZM32.3944 18.105L33.9688 19.6795L29.7227 23.9256L30.7974 25.0003L35.0435 20.7542L36.618 22.3286L37.5144 21.4322L33.2908 17.2086L32.3944 18.105ZM44.1479 28.0657L43.0657 26.9834L39.8315 30.2176L39.7863 30.1724L40.8007 24.7185L39.8465 23.7643L34.7039 28.9069L35.7912 29.9941L39.0279 26.7574L39.0656 26.7951L38.0662 32.2691L39.0053 33.2083L44.1479 28.0657ZM39.9036 34.1066L40.9909 35.1939L43.1153 33.0695L45.3225 35.2767L43.1981 37.4011L44.2829 38.4858L49.4255 33.3432L48.3407 32.2585L46.2189 34.3803L44.0117 32.1731L46.1335 30.0513L45.0462 28.964L39.9036 34.1066ZM46.0657 40.2687L47.62 39.4777L49.4757 41.3333L48.6847 42.8877L49.8498 44.0528L53.2197 37.1374L51.8185 35.7362L44.9006 39.1035L46.0657 40.2687ZM48.745 38.9052L51.3238 37.5919L51.364 37.6321L50.0507 40.2109L48.745 38.9052ZM51.6327 34.7067L52.4011 35.4751L53.3603 35.5906L53.4682 36.5423L54.2391 37.3132L54.0031 35.5153L53.4256 34.9377L51.6327 34.7067ZM54.4174 36.6076L55.0226 37.2127L56.7753 37.0822L55.9466 36.2535L54.4174 36.6076ZM53.8838 39.5944L55.4582 41.1689L51.2121 45.415L52.2868 46.4897L56.533 42.2436L58.1074 43.818L59.0038 42.9216L54.7803 38.698L53.8838 39.5944Z" fill="white"/>
</g>
<defs>
<clipPath id="clip0_1102_12591">
<rect width="64" height="65" fill="white" transform="matrix(-1 0 0 1 64 0)"/>
</clipPath>
</defs>
</svg>
