<svg width="33" height="32" viewBox="0 0 33 32" fill="none" xmlns="http://www.w3.org/2000/svg">
<path d="M30.5 11.75C30.5 20.5 17.5262 27.5825 16.9737 27.875C16.8281 27.9533 16.6654 27.9943 16.5 27.9943C16.3346 27.9943 16.1719 27.9533 16.0262 27.875C15.4738 27.5825 2.5 20.5 2.5 11.75C2.50232 9.69528 3.31958 7.72539 4.77248 6.27248C6.22539 4.81958 8.19528 4.00232 10.25 4C12.8313 4 15.0912 5.11 16.5 6.98625C17.9088 5.11 20.1688 4 22.75 4C24.8047 4.00232 26.7746 4.81958 28.2275 6.27248C29.6804 7.72539 30.4977 9.69528 30.5 11.75Z" fill="white"/>
</svg>
