<svg width="40" height="40" viewBox="0 0 40 40" fill="none" xmlns="http://www.w3.org/2000/svg">
<path d="M33.4167 18.334H6.58333C5.70888 18.334 5 19.0429 5 19.9173V20.084C5 20.9584 5.70888 21.6673 6.58333 21.6673H33.4167C34.2911 21.6673 35 20.9584 35 20.084V19.9173C35 19.0429 34.2911 18.334 33.4167 18.334Z" fill="white"/>
<path d="M33.4167 26.666H6.58333C5.70888 26.666 5 27.3749 5 28.2494V28.416C5 29.2905 5.70888 29.9993 6.58333 29.9993H33.4167C34.2911 29.9993 35 29.2905 35 28.416V28.2494C35 27.3749 34.2911 26.666 33.4167 26.666Z" fill="white"/>
<path d="M33.4167 10H6.58333C5.70888 10 5 10.7089 5 11.5833V11.75C5 12.6245 5.70888 13.3333 6.58333 13.3333H33.4167C34.2911 13.3333 35 12.6245 35 11.75V11.5833C35 10.7089 34.2911 10 33.4167 10Z" fill="white"/>
</svg>
