<svg width="40" height="40" viewBox="0 0 40 40" fill="none" xmlns="http://www.w3.org/2000/svg">
<path fill-rule="evenodd" clip-rule="evenodd" d="M19.371 8.13049C19.6841 8.26033 19.9518 8.48013 20.14 8.76208C20.3283 9.04402 20.4288 9.37547 20.4287 9.7145V30.2861C20.4286 30.6251 20.328 30.9564 20.1397 31.2383C19.9513 31.5201 19.6836 31.7398 19.3704 31.8695C19.0572 31.9992 18.7125 32.0332 18.38 31.9671C18.0475 31.901 17.7421 31.7378 17.5024 31.4981L11.1475 25.1432H6.7143C6.25964 25.1432 5.8236 24.9626 5.50211 24.6411C5.18061 24.3196 5 23.8835 5 23.4289V16.5717C5 16.117 5.18061 15.681 5.50211 15.3595C5.8236 15.038 6.25964 14.8574 6.7143 14.8574H11.1475L17.5024 8.50249C17.7421 8.2626 18.0476 8.09921 18.3802 8.033C18.7128 7.96678 19.0576 8.0007 19.371 8.13049ZM24.3596 15.3597C24.681 15.0383 25.117 14.8578 25.5716 14.8578C26.0261 14.8578 26.4621 15.0383 26.7836 15.3597L29.0002 17.5763L31.2168 15.3597C31.3749 15.1959 31.5641 15.0653 31.7732 14.9755C31.9824 14.8857 32.2073 14.8384 32.4349 14.8364C32.6626 14.8344 32.8883 14.8778 33.099 14.964C33.3097 15.0502 33.5011 15.1775 33.662 15.3384C33.823 15.4994 33.9503 15.6908 34.0365 15.9015C34.1227 16.1122 34.166 16.3379 34.1641 16.5655C34.1621 16.7931 34.1148 17.0181 34.0249 17.2272C33.9351 17.4364 33.8045 17.6256 33.6408 17.7837L31.4242 20.0003L33.6408 22.2169C33.953 22.5402 34.1258 22.9732 34.1219 23.4227C34.118 23.8722 33.9377 24.3022 33.6199 24.62C33.302 24.9378 32.8721 25.1181 32.4226 25.122C31.9731 25.126 31.5401 24.9532 31.2168 24.6409L29.0002 22.4243L26.7836 24.6409C26.4603 24.9532 26.0272 25.126 25.5777 25.122C25.1283 25.1181 24.6983 24.9378 24.3804 24.62C24.0626 24.3022 23.8823 23.8722 23.8784 23.4227C23.8745 22.9732 24.0473 22.5402 24.3596 22.2169L26.5762 20.0003L24.3596 17.7837C24.0382 17.4622 23.8576 17.0263 23.8576 16.5717C23.8576 16.1171 24.0382 15.6812 24.3596 15.3597Z" fill="white"/>
</svg>
