<svg width="56" height="56" viewBox="0 0 56 56" fill="none" xmlns="http://www.w3.org/2000/svg">
<path d="M42.5315 24.9315C42.5312 24.9315 42.5311 24.9319 42.5314 24.9321C43.0799 25.2343 43.5374 25.6782 43.856 26.2174C44.1749 26.7569 44.3431 27.3721 44.3431 27.9988C44.3431 28.6255 44.1749 29.2407 43.856 29.7803C43.5372 30.3198 43.0793 30.7639 42.5304 31.0662L19.1869 43.9004C18.6537 44.1932 18.0534 44.342 17.4451 44.3322C16.8369 44.3224 16.2417 44.1543 15.7182 43.8445C15.1947 43.5347 14.7609 43.0938 14.4596 42.5654C14.1583 42.0369 13.9999 41.439 14 40.8307V15.1669C14.0001 14.5585 14.1588 13.9605 14.4603 13.4321C14.7619 12.9036 15.196 12.4628 15.7198 12.1532C16.2436 11.8436 16.839 11.6758 17.4474 11.6664C18.0558 11.657 18.6561 11.8063 19.1892 12.0996L42.5317 24.9309C42.5319 24.9311 42.5318 24.9315 42.5315 24.9315Z" fill="white"/>
</svg>
