<svg width="28" height="24" viewBox="0 0 28 24" fill="none" xmlns="http://www.w3.org/2000/svg">
<path d="M9.99999 10.6667C11.0548 10.6667 12.086 10.3539 12.963 9.76784C13.8401 9.18181 14.5237 8.34885 14.9273 7.37431C15.331 6.39978 15.4366 5.32742 15.2308 4.29285C15.0251 3.25829 14.5171 2.30798 13.7712 1.5621C13.0253 0.816219 12.075 0.308269 11.0405 0.102481C10.0059 -0.103307 8.93355 0.00231083 7.95901 0.405978C6.98447 0.809646 6.15152 1.49323 5.56549 2.37029C4.97945 3.24736 4.66666 4.2785 4.66666 5.33334C4.66666 6.74782 5.22856 8.10438 6.22875 9.10457C7.22895 10.1048 8.5855 10.6667 9.99999 10.6667ZM20.6667 13.3333C21.4578 13.3333 22.2311 13.0987 22.8889 12.6592C23.5467 12.2197 24.0594 11.595 24.3622 10.8641C24.6649 10.1332 24.7441 9.3289 24.5898 8.55297C24.4355 7.77705 24.0545 7.06432 23.4951 6.50491C22.9357 5.9455 22.2229 5.56454 21.447 5.41019C20.6711 5.25585 19.8668 5.33507 19.1359 5.63782C18.405 5.94057 17.7803 6.45326 17.3408 7.11105C16.9013 7.76885 16.6667 8.54221 16.6667 9.33333C16.6667 10.3942 17.0881 11.4116 17.8382 12.1618C18.5884 12.9119 19.6058 13.3333 20.6667 13.3333ZM26 22.6667C26.3536 22.6667 26.6928 22.5262 26.9428 22.2761C27.1929 22.0261 27.3333 21.687 27.3333 21.3333C27.3323 20.0872 26.9819 18.8663 26.3221 17.8092C25.6623 16.752 24.7194 15.901 23.6005 15.3526C22.4815 14.8042 21.2312 14.5805 19.9914 14.7067C18.7517 14.8329 17.5722 15.304 16.5867 16.0667C15.2807 14.7658 13.6187 13.8808 11.8104 13.5232C10.0021 13.1657 8.12842 13.3516 6.42563 14.0575C4.72284 14.7634 3.26721 15.9578 2.24231 17.4899C1.21742 19.022 0.66915 20.8233 0.666656 22.6667C0.666656 23.0203 0.807132 23.3594 1.05718 23.6095C1.30723 23.8595 1.64637 24 1.99999 24H18C18.3536 24 18.6928 23.8595 18.9428 23.6095C19.1928 23.3594 19.3333 23.0203 19.3333 22.6667" fill="white"/>
</svg>
