<svg width="33" height="32" viewBox="0 0 33 32" fill="none" xmlns="http://www.w3.org/2000/svg">
<path d="M24.4999 1.33301H8.49992C6.73246 1.33512 5.038 2.03818 3.78821 3.28797C2.53843 4.53775 1.83537 6.23221 1.83325 7.99967V18.6663C1.83519 20.2026 2.36671 21.6913 3.33821 22.8813C4.30971 24.0714 5.6618 24.8902 7.16659 25.1997V29.333C7.16655 29.5744 7.23205 29.8113 7.35609 30.0184C7.48013 30.2254 7.65806 30.395 7.8709 30.5088C8.08374 30.6227 8.3235 30.6767 8.56461 30.665C8.80571 30.6533 9.03912 30.5763 9.23992 30.4423L16.8999 25.333H24.4999C26.2674 25.3309 27.9618 24.6278 29.2116 23.378C30.4614 22.1283 31.1645 20.4338 31.1666 18.6663V7.99967C31.1645 6.23221 30.4614 4.53775 29.2116 3.28797C27.9618 2.03818 26.2674 1.33512 24.4999 1.33301ZM21.8333 17.333H11.1666C10.813 17.333 10.4738 17.1925 10.2238 16.9425C9.97373 16.6924 9.83325 16.3533 9.83325 15.9997C9.83325 15.6461 9.97373 15.3069 10.2238 15.0569C10.4738 14.8068 10.813 14.6663 11.1666 14.6663H21.8333C22.1869 14.6663 22.526 14.8068 22.7761 15.0569C23.0261 15.3069 23.1666 15.6461 23.1666 15.9997C23.1666 16.3533 23.0261 16.6924 22.7761 16.9425C22.526 17.1925 22.1869 17.333 21.8333 17.333ZM24.4999 11.9997H8.49992C8.1463 11.9997 7.80716 11.8592 7.55711 11.6091C7.30706 11.3591 7.16659 11.02 7.16659 10.6663C7.16659 10.3127 7.30706 9.97358 7.55711 9.72353C7.80716 9.47348 8.1463 9.33301 8.49992 9.33301H24.4999C24.8535 9.33301 25.1927 9.47348 25.4427 9.72353C25.6928 9.97358 25.8333 10.3127 25.8333 10.6663C25.8333 11.02 25.6928 11.3591 25.4427 11.6091C25.1927 11.8592 24.8535 11.9997 24.4999 11.9997Z" fill="#EC2227"/>
</svg>
