<svg width="28" height="28" viewBox="0 0 28 28" fill="none" xmlns="http://www.w3.org/2000/svg">
<path d="M13.9333 22.0003C14.4 22.0003 14.7946 21.839 15.1173 21.5163C15.44 21.1937 15.6009 20.7994 15.6 20.3337C15.6 19.867 15.4391 19.4723 15.1173 19.1497C14.7955 18.827 14.4008 18.6661 13.9333 18.667C13.4666 18.667 13.0724 18.8283 12.7506 19.151C12.4288 19.4737 12.2675 19.8679 12.2666 20.3337C12.2666 20.8003 12.428 21.195 12.7506 21.5177C13.0733 21.8403 13.4675 22.0012 13.9333 22.0003ZM14.1333 8.26699C14.7555 8.26699 15.2555 8.43899 15.6333 8.78299C16.0111 9.12699 16.2 9.57722 16.2 10.1337C16.2 10.5114 16.0724 10.8945 15.8173 11.283C15.5622 11.6714 15.2009 12.0772 14.7333 12.5003C14.0666 13.0781 13.5777 13.6337 13.2666 14.167C12.9555 14.7003 12.8 15.2337 12.8 15.767C12.8 16.0781 12.9169 16.3394 13.1506 16.551C13.3844 16.7625 13.6564 16.8679 13.9666 16.867C14.2777 16.867 14.5555 16.7559 14.8 16.5337C15.0444 16.3114 15.2 16.0337 15.2666 15.7003C15.3333 15.3225 15.4835 14.9723 15.7173 14.6497C15.9511 14.327 16.3342 13.9105 16.8666 13.4003C17.5555 12.7559 18.0391 12.167 18.3173 11.6337C18.5955 11.1003 18.7342 10.5114 18.7333 9.86699C18.7333 8.73366 18.3053 7.8061 17.4493 7.08433C16.5933 6.36255 15.488 6.00121 14.1333 6.00033C13.2 6.00033 12.3724 6.1781 11.6506 6.53366C10.9288 6.88921 10.3675 7.43366 9.96663 8.16699C9.81107 8.45588 9.75552 8.73944 9.79996 9.01766C9.84441 9.29588 9.99996 9.52344 10.2666 9.70033C10.5555 9.8781 10.8724 9.93366 11.2173 9.86699C11.5622 9.80033 11.8453 9.61144 12.0666 9.30033C12.3111 8.96699 12.6053 8.71144 12.9493 8.53366C13.2933 8.35588 13.688 8.26699 14.1333 8.26699ZM14 27.3337C12.1777 27.3337 10.4555 26.9834 8.83329 26.283C7.21107 25.5825 5.79418 24.6328 4.58263 23.4337C3.37196 22.2337 2.41641 20.8225 1.71596 19.2003C1.01552 17.5781 0.665739 15.8448 0.666628 14.0003C0.666628 12.1559 1.01685 10.4225 1.71729 8.80033C2.41774 7.1781 3.37329 5.76699 4.58396 4.56699C5.79463 3.36699 7.21063 2.41721 8.83196 1.71766C10.4533 1.0181 12.176 0.667881 14 0.666992C15.8666 0.666992 17.6111 1.01721 19.2333 1.71766C20.8555 2.4181 22.2666 3.36788 23.4666 4.56699C24.6666 5.76699 25.6111 7.1781 26.3 8.80033C26.9889 10.4225 27.3333 12.1559 27.3333 14.0003C27.3333 15.8448 26.9889 17.5781 26.3 19.2003C25.6111 20.8225 24.6666 22.2337 23.4666 23.4337C22.2666 24.6337 20.8555 25.5839 19.2333 26.2843C17.6111 26.9848 15.8666 27.3345 14 27.3337ZM14 24.667C16.9777 24.667 19.5 23.6283 21.5666 21.551C23.6333 19.4737 24.6666 16.9568 24.6666 14.0003C24.6666 11.0448 23.6333 8.52788 21.5666 6.44966C19.5 4.37144 16.9777 3.33277 14 3.33366C11.0889 3.33366 8.58307 4.37233 6.48263 6.44966C4.38218 8.52699 3.33241 11.0439 3.33329 14.0003C3.33329 16.9559 4.38352 19.4728 6.48396 21.551C8.58441 23.6292 11.0897 24.6679 14 24.667Z" fill="white"/>
</svg>
