<svg width="29" height="24" viewBox="0 0 29 24" fill="none" xmlns="http://www.w3.org/2000/svg">
<path d="M28.2075 11.7073L18.2075 21.7073C18.0676 21.8473 17.8894 21.9427 17.6953 21.9813C17.5012 22.02 17.3 22.0002 17.1172 21.9244C16.9344 21.8487 16.7781 21.7204 16.6683 21.5558C16.5584 21.3912 16.4998 21.1977 16.5 20.9998V16.0286C9.36248 16.4336 4.46873 21.0623 3.09498 22.5286C2.87927 22.7589 2.5964 22.9154 2.28661 22.9757C1.97683 23.036 1.65592 22.997 1.36956 22.8644C1.08319 22.7317 0.845968 22.5121 0.69164 22.2368C0.537312 21.9615 0.473745 21.6446 0.509985 21.3311C0.973735 17.2986 3.18248 13.4198 6.72998 10.4098C9.67623 7.90981 13.2575 6.32356 16.5 6.04606V0.999811C16.4998 0.801915 16.5584 0.608423 16.6683 0.443829C16.7781 0.279235 16.9344 0.150941 17.1172 0.0751884C17.3 -0.000564069 17.5012 -0.0203687 17.6953 0.0182817C17.8894 0.0569321 18.0676 0.1523 18.2075 0.292311L28.2075 10.2923C28.3005 10.3852 28.3742 10.4955 28.4245 10.6169C28.4749 10.7383 28.5008 10.8684 28.5008 10.9998C28.5008 11.1312 28.4749 11.2614 28.4245 11.3828C28.3742 11.5041 28.3005 11.6144 28.2075 11.7073Z" fill="white"/>
</svg>
