<svg width="24" height="24" viewBox="0 0 24 24" fill="none" xmlns="http://www.w3.org/2000/svg">
<path d="M18.411 13.8665C18.1657 13.8665 17.9228 13.8183 17.6962 13.7245C17.4695 13.6307 17.2636 13.4932 17.0901 13.3198C16.9166 13.1464 16.7789 12.9406 16.685 12.714C16.5911 12.4874 16.5427 12.2445 16.5426 11.9993C16.5425 11.754 16.5908 11.5111 16.6845 11.2844C16.7783 11.0578 16.9159 10.8518 17.0892 10.6783C17.2626 10.5049 17.4685 10.3672 17.6951 10.2733C17.9216 10.1793 18.1645 10.1309 18.4098 10.1309C18.9052 10.1307 19.3803 10.3273 19.7307 10.6775C20.0811 11.0277 20.278 11.5027 20.2782 11.9981C20.2784 12.4934 20.0817 12.9686 19.7316 13.319C19.3814 13.6694 18.9064 13.8663 18.411 13.8665Z" fill="white"/>
<path d="M10.1334 12C10.1334 13.0312 10.9694 13.8672 12.0006 13.8672C13.0318 13.8672 13.8678 13.0312 13.8678 12C13.8678 10.9688 13.0318 10.1328 12.0006 10.1328C10.9694 10.1328 10.1334 10.9688 10.1334 12Z" fill="white"/>
<path d="M3.72178 12C3.72178 13.0312 4.55775 13.8672 5.58898 13.8672C6.6202 13.8672 7.45618 13.0312 7.45618 12C7.45618 10.9688 6.6202 10.1328 5.58898 10.1328C4.55775 10.1328 3.72178 10.9688 3.72178 12Z" fill="white"/>
</svg>
