<svg width="40" height="40" viewBox="0 0 40 40" fill="none" xmlns="http://www.w3.org/2000/svg">
<path fill-rule="evenodd" clip-rule="evenodd" d="M18.3914 8.68857C18.6876 8.80716 18.9408 9.00791 19.1188 9.26541C19.2969 9.52292 19.3919 9.82563 19.3918 10.1353V28.9236C19.3917 29.2332 19.2966 29.5359 19.1184 29.7933C18.9403 30.0507 18.6871 30.2514 18.3909 30.3698C18.0947 30.4883 17.7687 30.5193 17.4543 30.4589C17.1398 30.3985 16.8509 30.2495 16.6242 30.0306L10.6139 24.2265H6.42114C5.99113 24.2265 5.57874 24.0616 5.27468 23.768C4.97062 23.4743 4.7998 23.0761 4.7998 22.6608V16.3981C4.7998 15.9828 4.97062 15.5846 5.27468 15.2909C5.57874 14.9973 5.99113 14.8324 6.42114 14.8324H10.6139L16.6242 9.02833C16.8509 8.80924 17.1399 8.66001 17.4544 8.59953C17.769 8.53905 18.0951 8.57004 18.3914 8.68857ZM26.9423 8.45841C27.2464 8.16489 27.6587 8 28.0886 8C28.5186 8 28.9309 8.16489 29.2349 8.45841C30.7425 9.91084 31.9381 11.6366 32.753 13.5365C33.568 15.4364 33.9862 17.473 33.9838 19.5295C33.9862 21.5859 33.568 23.6226 32.753 25.5225C31.9381 27.4224 30.7425 29.1481 29.2349 30.6005C28.9291 30.8857 28.5196 31.0435 28.0945 31.0399C27.6694 31.0364 27.2627 30.8717 26.9621 30.5814C26.6615 30.2911 26.491 29.8984 26.4873 29.4879C26.4836 29.0774 26.647 28.6819 26.9423 28.3866C28.1489 27.2249 29.1056 25.8444 29.7575 24.3243C30.4095 22.8043 30.7438 21.1747 30.7411 19.5295C30.7439 17.8842 30.4096 16.2546 29.7577 14.7345C29.1057 13.2145 28.1489 11.8339 26.9423 10.6723C26.6384 10.3787 26.4676 9.98053 26.4676 9.56536C26.4676 9.1502 26.6384 8.75203 26.9423 8.45841ZM22.3556 12.8862C22.5062 12.7406 22.685 12.6251 22.8818 12.5464C23.0786 12.4676 23.2896 12.427 23.5027 12.427C23.7158 12.427 23.9267 12.4676 24.1236 12.5464C24.3204 12.6251 24.4992 12.7406 24.6498 12.8862C25.5543 13.7578 26.2716 14.7933 26.7605 15.9334C27.2493 17.0734 27.5001 18.2955 27.4985 19.5295C27.5 20.7634 27.2492 21.9854 26.7603 23.1255C26.2715 24.2655 25.5542 25.3011 24.6498 26.1727C24.3456 26.4665 23.9329 26.6315 23.5027 26.6315C23.0724 26.6315 22.6598 26.4665 22.3556 26.1727C22.0514 25.8789 21.8805 25.4805 21.8805 25.065C21.8805 24.6495 22.0514 24.251 22.3556 23.9572C22.959 23.3766 23.4375 22.6865 23.7637 21.9266C24.0898 21.1667 24.257 20.352 24.2558 19.5295C24.2571 18.7069 24.0899 17.8921 23.7638 17.1322C23.4377 16.3723 22.9591 15.6822 22.3556 15.1017C22.2049 14.9563 22.0853 14.7836 22.0037 14.5935C21.9221 14.4034 21.8801 14.1997 21.8801 13.9939C21.8801 13.7882 21.9221 13.5844 22.0037 13.3944C22.0853 13.2043 22.2049 13.0316 22.3556 12.8862Z" fill="white"/>
</svg>
