<svg width="32" height="32" viewBox="0 0 32 32" fill="none" xmlns="http://www.w3.org/2000/svg">
<g clip-path="url(#clip0_3903_6694)">
<path d="M17.6373 3.58333C17.1692 3.21919 16.5931 3.02148 16 3.02148C15.4069 3.02148 14.8308 3.21919 14.3627 3.58333L3.18401 12.2767C2.18134 13.0593 2.73334 14.666 4.00401 14.666H5.33334V25.3327C5.33334 26.0399 5.61429 26.7182 6.11439 27.2183C6.61449 27.7184 7.29276 27.9993 8.00001 27.9993H13.3333V19.9993C13.3333 19.2921 13.6143 18.6138 14.1144 18.1137C14.6145 17.6136 15.2928 17.3327 16 17.3327C16.7073 17.3327 17.3855 17.6136 17.8856 18.1137C18.3857 18.6138 18.6667 19.2921 18.6667 19.9993V27.9993H24C24.7073 27.9993 25.3855 27.7184 25.8856 27.2183C26.3857 26.7182 26.6667 26.0399 26.6667 25.3327V14.666H27.996C29.2653 14.666 29.82 13.0593 28.816 12.278L17.6373 3.58333Z" fill="white"/>
</g>
<defs>
<clipPath id="clip0_3903_6694">
<rect width="32" height="32" fill="white"/>
</clipPath>
</defs>
</svg>
