<svg width="28" height="25" viewBox="0 0 28 25" fill="none" xmlns="http://www.w3.org/2000/svg">
<path d="M15.6373 0.584311C15.1692 0.220166 14.5931 0.0224609 14 0.0224609C13.4069 0.0224609 12.8308 0.220166 12.3627 0.584311L1.18401 9.27764C0.181339 10.0603 0.733339 11.667 2.00401 11.667H3.33334V22.3336C3.33334 23.0409 3.61429 23.7192 4.11439 24.2193C4.61449 24.7194 5.29276 25.0003 6.00001 25.0003H11.3333V17.0003C11.3333 16.2931 11.6143 15.6148 12.1144 15.1147C12.6145 14.6146 13.2928 14.3336 14 14.3336C14.7073 14.3336 15.3855 14.6146 15.8856 15.1147C16.3857 15.6148 16.6667 16.2931 16.6667 17.0003V25.0003H22C22.7073 25.0003 23.3855 24.7194 23.8856 24.2193C24.3857 23.7192 24.6667 23.0409 24.6667 22.3336V11.667H25.996C27.2653 11.667 27.82 10.0603 26.816 9.27898L15.6373 0.584311Z" fill="white"/>
</svg>
