<svg width="32" height="32" viewBox="0 0 32 32" fill="none" xmlns="http://www.w3.org/2000/svg">
<path d="M14.3627 3.58438C14.8001 3.2441 15.3326 3.04855 15.8863 3.02489C16.4399 3.00124 16.9872 3.15065 17.452 3.45238L17.6374 3.58571L28.816 12.279C29.7774 13.027 29.3094 14.535 28.1507 14.659L27.996 14.667H26.6667V25.3337C26.6669 26.0065 26.4128 26.6545 25.9554 27.1478C25.4979 27.6411 24.8709 27.9433 24.2 27.9937L24 28.0004H8.00004C7.3275 28.0003 6.67984 27.746 6.18682 27.2886C5.69379 26.8312 5.39181 26.2044 5.34137 25.5337L5.33337 25.3337V14.667H4.00404C2.78671 14.667 2.22804 13.1897 3.0667 12.3804L3.18404 12.279L14.3627 3.58438ZM16 5.68971L7.50004 12.3004C7.80537 12.547 8.00004 12.9244 8.00004 13.347V25.3337H12V18.667C12 17.6062 12.4215 16.5888 13.1716 15.8386C13.9218 15.0885 14.9392 14.667 16 14.667C17.0609 14.667 18.0783 15.0885 18.8285 15.8386C19.5786 16.5888 20 17.6062 20 18.667V25.3337H24V13.347C24 12.9244 24.1947 12.547 24.5 12.3004L16 5.68971ZM16 17.3337C15.6464 17.3337 15.3073 17.4742 15.0572 17.7242C14.8072 17.9743 14.6667 18.3134 14.6667 18.667V25.3337H17.3334V18.667C17.3334 18.3134 17.1929 17.9743 16.9428 17.7242C16.6928 17.4742 16.3537 17.3337 16 17.3337Z" fill="white"/>
</svg>
