<svg width="32" height="32" viewBox="0 0 32 32" fill="none" xmlns="http://www.w3.org/2000/svg">
<mask id="mask0_2262_8265" style="mask-type:alpha" maskUnits="userSpaceOnUse" x="1" y="5" width="30" height="22">
<path d="M16 19.0869C16.3974 19.0876 16.7911 19.01 17.1585 18.8586C17.5259 18.7071 17.8598 18.4847 18.1413 18.2041C18.4227 17.9236 18.6461 17.5903 18.7987 17.2233C18.9513 16.8564 19.0301 16.463 19.0307 16.0656C19.0301 15.6682 18.9512 15.2749 18.7985 14.908C18.6459 14.5412 18.4225 14.208 18.141 13.9275C17.8596 13.647 17.5257 13.4247 17.1583 13.2732C16.7909 13.1218 16.3973 13.0442 16 13.0449C15.1977 13.0437 14.4279 13.3611 13.8596 13.9275C13.2914 14.4938 12.9714 15.2627 12.97 16.0649C12.9704 16.4623 13.0492 16.8558 13.2017 17.2227C13.3542 17.5897 13.5775 17.923 13.8589 18.2037C14.1403 18.4843 14.4742 18.7067 14.8416 18.8583C15.209 19.0098 15.6026 19.0875 16 19.0869Z" fill="white" stroke="white" stroke-width="2" stroke-linejoin="round"/>
<path d="M10.6667 10.0003C7.11133 13.3137 7.11133 18.687 10.6667 22.0003M21.3333 22.0003C24.8887 18.687 24.8887 13.3137 21.3333 10.0003M6.57199 6.66699C1.36533 11.8577 1.36533 20.2737 6.57199 25.4643M25.428 25.4643C30.6347 20.2737 30.6347 11.8577 25.428 6.66699" stroke="white" stroke-width="2" stroke-linecap="round" stroke-linejoin="round"/>
</mask>
<g mask="url(#mask0_2262_8265)">
<path d="M0 0H32V32H0V0Z" fill="white"/>
</g>
</svg>
