<svg width="32" height="32" viewBox="0 0 32 32" fill="none" xmlns="http://www.w3.org/2000/svg">
<path d="M15.9941 26.9912L15.9941 26.9912L16 26.9943L16.0059 26.9912C16.2483 26.8629 19.5546 25.061 22.7852 22.2318C26.0684 19.3565 28.9997 15.6574 29 11.7505C28.9978 9.96086 28.2859 8.2451 27.0204 6.97959C25.7549 5.71408 24.0391 5.00217 22.2494 5C19.9607 5.00016 18.0064 5.97945 16.7997 7.58667L16 8.65173L15.2003 7.58667C13.9936 5.97945 12.0393 5.00015 9.75055 5C7.96086 5.00217 6.2451 5.71408 4.97959 6.97959C3.71394 8.24523 3.00202 9.96123 3 11.7511C3.00056 15.6578 5.93174 19.3566 9.21476 22.2318C12.4454 25.061 15.7517 26.8629 15.9941 26.9912Z" stroke="white" stroke-width="2"/>
</svg>
