<svg width="32" height="32" viewBox="0 0 32 32" fill="none" xmlns="http://www.w3.org/2000/svg">
<path d="M16.0059 26.9912L16.0059 26.9912L16 26.9943L15.9941 26.9912C15.7517 26.8629 12.4454 25.061 9.21476 22.2318C5.93158 19.3565 3.00027 15.6574 3 11.7505C3.00217 9.96087 3.71408 8.2451 4.97959 6.97959C6.2451 5.71408 7.96087 5.00217 9.75055 5C12.0393 5.00016 13.9936 5.97945 15.2003 7.58668L16 8.65173L16.7997 7.58668C18.0064 5.97945 19.9607 5.00016 22.2495 5C24.0391 5.00217 25.7549 5.71408 27.0204 6.97959C28.2861 8.24523 28.998 9.96124 29 11.7511C28.9994 15.6578 26.0683 19.3566 22.7852 22.2318C19.5546 25.061 16.2483 26.8629 16.0059 26.9912Z" stroke="white" stroke-width="2"/>
</svg>
