<svg width="28" height="24" viewBox="0 0 28 24" fill="none" xmlns="http://www.w3.org/2000/svg">
<path d="M9.99999 10.6667C11.0548 10.6667 12.086 10.3539 12.963 9.76784C13.8401 9.18181 14.5237 8.34885 14.9273 7.37431C15.331 6.39978 15.4366 5.32742 15.2308 4.29285C15.0251 3.25829 14.5171 2.30798 13.7712 1.5621C13.0253 0.816219 12.075 0.308269 11.0405 0.102481C10.0059 -0.103307 8.93355 0.00231083 7.95901 0.405978C6.98447 0.809646 6.15152 1.49323 5.56549 2.37029C4.97945 3.24736 4.66666 4.2785 4.66666 5.33334C4.66666 6.74782 5.22856 8.10438 6.22875 9.10457C7.22895 10.1048 8.5855 10.6667 9.99999 10.6667ZM9.99999 2.66667C10.5274 2.66667 11.043 2.82307 11.4815 3.11608C11.92 3.4091 12.2618 3.82558 12.4637 4.31285C12.6655 4.80012 12.7183 5.33629 12.6154 5.85358C12.5125 6.37086 12.2585 6.84601 11.8856 7.21895C11.5127 7.59189 11.0375 7.84587 10.5202 7.94876C10.0029 8.05166 9.46677 7.99885 8.9795 7.79701C8.49223 7.59518 8.07576 7.25339 7.78274 6.81486C7.48972 6.37632 7.33332 5.86075 7.33332 5.33334C7.33332 4.62609 7.61427 3.94781 8.11437 3.44772C8.61447 2.94762 9.29275 2.66667 9.99999 2.66667ZM20.6667 13.3333C21.4578 13.3333 22.2311 13.0987 22.8889 12.6592C23.5467 12.2197 24.0594 11.595 24.3622 10.8641C24.6649 10.1332 24.7441 9.3289 24.5898 8.55297C24.4355 7.77705 24.0545 7.06432 23.4951 6.50491C22.9357 5.9455 22.2229 5.56454 21.447 5.41019C20.6711 5.25585 19.8668 5.33507 19.1359 5.63782C18.405 5.94057 17.7803 6.45326 17.3408 7.11105C16.9013 7.76885 16.6667 8.54221 16.6667 9.33333C16.6667 10.3942 17.0881 11.4116 17.8382 12.1618C18.5884 12.9119 19.6058 13.3333 20.6667 13.3333ZM20.6667 8C20.9304 8 21.1882 8.0782 21.4074 8.22471C21.6267 8.37122 21.7976 8.57946 21.8985 8.82309C21.9994 9.06672 22.0258 9.33481 21.9744 9.59346C21.9229 9.8521 21.7959 10.0897 21.6095 10.2761C21.423 10.4626 21.1854 10.5896 20.9268 10.641C20.6681 10.6925 20.4 10.6661 20.1564 10.5652C19.9128 10.4643 19.7045 10.2934 19.558 10.0741C19.4115 9.85483 19.3333 9.59704 19.3333 9.33333C19.3333 8.97971 19.4738 8.64058 19.7238 8.39053C19.9739 8.14048 20.313 8 20.6667 8ZM20.6667 14.6667C19.1891 14.6683 17.7539 15.1608 16.5867 16.0667C15.2807 14.7658 13.6187 13.8808 11.8104 13.5232C10.0021 13.1657 8.12842 13.3516 6.42563 14.0575C4.72284 14.7634 3.26721 15.9578 2.24231 17.4899C1.21742 19.022 0.66915 20.8233 0.666656 22.6667C0.666656 23.0203 0.807132 23.3594 1.05718 23.6095C1.30723 23.8595 1.64637 24 1.99999 24C2.35361 24 2.69275 23.8595 2.9428 23.6095C3.19285 23.3594 3.33332 23.0203 3.33332 22.6667C3.33332 20.8986 4.0357 19.2029 5.28594 17.9526C6.53619 16.7024 8.23188 16 9.99999 16C11.7681 16 13.4638 16.7024 14.714 17.9526C15.9643 19.2029 16.6667 20.8986 16.6667 22.6667C16.6667 23.0203 16.8071 23.3594 17.0572 23.6095C17.3072 23.8595 17.6464 24 18 24C18.3536 24 18.6928 23.8595 18.9428 23.6095C19.1928 23.3594 19.3333 23.0203 19.3333 22.6667C19.3365 21.1046 18.9419 19.5674 18.1867 18.2C18.7759 17.7344 19.4843 17.444 20.2308 17.3622C20.9774 17.2804 21.7318 17.4104 22.4079 17.7373C23.084 18.0642 23.6545 18.5749 24.0539 19.2108C24.4534 19.8468 24.6657 20.5823 24.6667 21.3333C24.6667 21.687 24.8071 22.0261 25.0572 22.2761C25.3072 22.5262 25.6464 22.6667 26 22.6667C26.3536 22.6667 26.6928 22.5262 26.9428 22.2761C27.1929 22.0261 27.3333 21.687 27.3333 21.3333C27.3333 19.5652 26.6309 17.8695 25.3807 16.6193C24.1305 15.369 22.4348 14.6667 20.6667 14.6667Z" fill="white"/>
</svg>
