<svg width="32" height="32" viewBox="0 0 32 32" fill="none" xmlns="http://www.w3.org/2000/svg">
<path d="M12 14.6667C13.0548 14.6667 14.086 14.3539 14.963 13.7678C15.8401 13.1818 16.5237 12.3489 16.9273 11.3743C17.331 10.3998 17.4366 9.32742 17.2308 8.29285C17.0251 7.25829 16.5171 6.30798 15.7712 5.5621C15.0253 4.81622 14.075 4.30827 13.0405 4.10248C12.0059 3.89669 10.9336 4.00231 9.95901 4.40598C8.98447 4.80965 8.15152 5.49323 7.56549 6.37029C6.97945 7.24736 6.66666 8.2785 6.66666 9.33334C6.66666 10.7478 7.22856 12.1044 8.22875 13.1046C9.22895 14.1048 10.5855 14.6667 12 14.6667ZM22.6667 17.3333C23.4578 17.3333 24.2311 17.0987 24.8889 16.6592C25.5467 16.2197 26.0594 15.595 26.3622 14.8641C26.6649 14.1332 26.7441 13.3289 26.5898 12.553C26.4355 11.7771 26.0545 11.0643 25.4951 10.5049C24.9357 9.9455 24.2229 9.56454 23.447 9.41019C22.6711 9.25585 21.8668 9.33507 21.1359 9.63782C20.405 9.94057 19.7803 10.4533 19.3408 11.1111C18.9013 11.7689 18.6667 12.5422 18.6667 13.3333C18.6667 14.3942 19.0881 15.4116 19.8382 16.1618C20.5884 16.9119 21.6058 17.3333 22.6667 17.3333ZM28 26.6667C28.3536 26.6667 28.6928 26.5262 28.9428 26.2761C29.1929 26.0261 29.3333 25.687 29.3333 25.3333C29.3323 24.0872 28.9819 22.8663 28.3221 21.8092C27.6623 20.752 26.7194 19.901 25.6005 19.3526C24.4815 18.8042 23.2312 18.5805 21.9914 18.7067C20.7517 18.8329 19.5722 19.304 18.5867 20.0667C17.2807 18.7658 15.6187 17.8808 13.8104 17.5232C12.0021 17.1657 10.1284 17.3516 8.42563 18.0575C6.72284 18.7634 5.26721 19.9578 4.24231 21.4899C3.21742 23.022 2.66915 24.8233 2.66666 26.6667C2.66666 27.0203 2.80713 27.3594 3.05718 27.6095C3.30723 27.8595 3.64637 28 3.99999 28H20C20.3536 28 20.6928 27.8595 20.9428 27.6095C21.1928 27.3594 21.3333 27.0203 21.3333 26.6667" fill="white"/>
</svg>
