<svg width="32" height="32" viewBox="0 0 32 32" fill="none" xmlns="http://www.w3.org/2000/svg">
<circle cx="16" cy="16" r="14" fill="#EC2227"/>
<g clip-path="url(#clip0_1815_8457)">
<path d="M24 19.368C23.9625 17.2805 23.716 15.1695 23.3116 13.0389C22.9822 11.5586 21.7972 10.2402 19.9038 10.1436C18.506 10.0861 18.2356 10.8823 16.6519 10.867C16.2181 10.8642 15.7847 10.8642 15.351 10.867C13.7669 10.8823 13.496 10.0861 12.0988 10.1436C10.205 10.2402 8.98314 11.5552 8.6897 13.0389C8.28501 15.1695 8.03845 17.2802 8.00126 19.3677C7.9922 20.8211 9.4272 21.788 10.3741 21.8542C12.2031 21.9923 13.6563 18.767 14.7635 18.7667C15.5888 18.7714 16.4138 18.7717 17.2391 18.7667C18.3466 18.7667 19.7985 21.9927 21.6288 21.8545C22.5753 21.7883 24.0475 20.8148 24.0003 19.368H24ZM13.9669 15.2948H13.1138V16.148C13.1138 16.508 12.8219 16.7998 12.4619 16.7998C12.1019 16.7998 11.81 16.508 11.81 16.148V15.2948H10.9569C10.5969 15.2948 10.305 15.003 10.305 14.643C10.305 14.283 10.5969 13.9911 10.9569 13.9911H11.81V13.138C11.81 12.778 12.1019 12.4861 12.4619 12.4861C12.8219 12.4861 13.1138 12.778 13.1138 13.138V13.9911H13.9669C14.3269 13.9911 14.6188 14.283 14.6188 14.643C14.6188 15.003 14.3269 15.2948 13.9669 15.2948ZM19.2347 16.7995C18.7244 16.8133 18.3 16.4102 18.2863 15.9002C18.2728 15.3883 18.6763 14.9633 19.1863 14.9502C19.6969 14.9373 20.1219 15.3402 20.135 15.8508C20.1478 16.3614 19.745 16.7864 19.2347 16.7995ZM20.7738 14.3355C20.2635 14.3498 19.8381 13.9464 19.8241 13.4361C19.8113 12.9248 20.2141 12.5005 20.7247 12.4864C21.236 12.473 21.6603 12.8764 21.6741 13.387C21.6875 13.8973 21.2838 14.3227 20.7738 14.3355Z" fill="white"/>
</g>
<defs>
<clipPath id="clip0_1815_8457">
<rect width="16" height="16" fill="white" transform="translate(8 8)"/>
</clipPath>
</defs>
</svg>
