<svg width="32" height="32" viewBox="0 0 32 32" fill="none" xmlns="http://www.w3.org/2000/svg">
<circle cx="16" cy="16" r="14" fill="#00B3BA"/>
<path d="M12.3333 8.66699C11.1187 8.66699 10.1333 9.65171 10.1333 10.867C10.1333 12.0816 11.1187 13.067 12.3333 13.067C13.5479 13.067 14.5333 12.0816 14.5333 10.867C14.5333 9.65171 13.5479 8.66699 12.3333 8.66699Z" fill="white"/>
<path d="M10.1332 14.5332L7.19995 17.4665L8.23703 18.5033L10.1332 16.6071V23.333H11.6V20.3997H13.0667V23.333H14.5332V14.5332H10.1332Z" fill="white"/>
<path d="M24.8 17.4665L21.8667 14.5332H17.4667L16 21.133H17.4667V23.333H18.9333V21.133H20.4V23.333H21.8667V21.133H23.3333L22.4588 17.2L23.7629 18.5033L24.8 17.4665Z" fill="white"/>
<path d="M19.6668 8.66699C18.4522 8.66699 17.4668 9.65171 17.4668 10.867C17.4668 12.0816 18.4522 13.067 19.6668 13.067C20.8814 13.067 21.8668 12.0816 21.8668 10.867C21.8668 9.65171 20.8814 8.66699 19.6668 8.66699Z" fill="white"/>
</svg>
