<svg width="32" height="32" viewBox="0 0 32 32" fill="none" xmlns="http://www.w3.org/2000/svg">
<circle cx="16" cy="16" r="14" fill="#EF8810"/>
<path d="M21.5 9.9999C19.9548 10 18.4388 9.58003 17.114 8.7849L16.7575 8.5714C16.6816 8.52583 16.595 8.5012 16.5065 8.50004C16.418 8.49888 16.3308 8.52123 16.2538 8.5648C16.1767 8.60838 16.1127 8.67161 16.0681 8.74806C16.0235 8.8245 16 8.91141 16 8.9999V17.5554C15.4324 16.9767 14.6815 16.6131 13.8755 16.5268C13.0696 16.4406 12.2587 16.637 11.5816 17.0825C10.9044 17.5281 10.4031 18.195 10.1634 18.9693C9.92366 19.7436 9.96038 20.5771 10.2673 21.3273C10.5742 22.0775 11.1322 22.6978 11.8459 23.0821C12.5595 23.4663 13.3846 23.5907 14.1798 23.4339C14.9751 23.2771 15.6911 22.8489 16.2056 22.2225C16.72 21.5961 17.0008 20.8105 17 19.9999V12.8699C18.3839 13.6117 19.9298 13.9999 21.5 13.9999C21.6326 13.9999 21.7597 13.9472 21.8535 13.8535C21.9473 13.7597 22 13.6325 22 13.4999V10.4999C22 10.3673 21.9473 10.2401 21.8535 10.1464C21.7597 10.0526 21.6326 9.9999 21.5 9.9999Z" fill="white"/>
</svg>
