<svg width="32" height="32" viewBox="0 0 32 32" fill="none" xmlns="http://www.w3.org/2000/svg">
<circle cx="16" cy="16" r="14" fill="#4B0EAF"/>
<g clip-path="url(#clip0_1815_8448)">
<path d="M24 16C24 11.5817 20.4183 8 16 8C11.5817 8 8 11.5817 8 16C8 20.4183 11.5817 24 16 24H24V22.6667H20.4167C22.6533 21.1859 23.999 18.6826 24 16ZM19.9186 21.3936C19.0251 22.0426 17.7741 21.8447 17.125 20.9508C16.4759 20.0573 16.6738 18.8066 17.5674 18.1572C18.4613 17.5081 19.7119 17.7061 20.361 18.5999C21.0104 19.4935 20.8122 20.7441 19.9186 21.3936ZM19.8203 12.6559C20.8708 12.3145 21.999 12.8893 22.3405 13.9398C22.6816 14.9906 22.1068 16.1188 21.0563 16.46C20.0059 16.8014 18.8776 16.2266 18.5361 15.1761C18.195 14.1257 18.7699 12.9971 19.8203 12.6559ZM16 9.33333C17.1045 9.33333 18 10.2288 18 11.3333C18 12.4378 17.1045 13.3333 16 13.3333C14.8955 13.3333 14 12.4378 14 11.3333C14 10.2288 14.8955 9.33333 16 9.33333ZM9.65951 13.9398C10.001 12.8893 11.1292 12.3145 12.1797 12.6556C13.2301 12.9971 13.805 14.1253 13.4639 15.1758C13.1224 16.2262 11.9941 16.8011 10.9437 16.46C9.89323 16.1188 9.31836 14.9906 9.65951 13.9398ZM14.875 20.9508C14.2259 21.8447 12.9749 22.0426 12.0814 21.3936C11.1878 20.7441 10.9896 19.4935 11.639 18.5999C12.2881 17.7064 13.5391 17.5081 14.4326 18.1576C15.3262 18.8066 15.5241 20.0573 14.875 20.9508ZM15.3333 16C15.3333 15.6318 15.6318 15.3333 16 15.3333C16.3682 15.3333 16.6667 15.6318 16.6667 16C16.6667 16.3682 16.3682 16.6667 16 16.6667C15.6318 16.6667 15.3333 16.3682 15.3333 16Z" fill="white"/>
</g>
<defs>
<clipPath id="clip0_1815_8448">
<rect width="16" height="16" fill="white" transform="translate(8 8)"/>
</clipPath>
</defs>
</svg>
