<?xml version="1.0" standalone="no"?>
<!DOCTYPE svg PUBLIC "-//W3C//DTD SVG 20010904//EN"
 "http://www.w3.org/TR/2001/REC-SVG-20010904/DTD/svg10.dtd">
<svg version="1.0" xmlns="http://www.w3.org/2000/svg"
 width="28.000000pt" height="28.000000pt" viewBox="0 0 28.000000 28.000000"
 preserveAspectRatio="xMidYMid meet">

<g transform="translate(0.000000,28.000000) scale(0.100000,-0.100000)"
fill="#000000" stroke="none">
<path d="M94 261 c-83 -38 -110 -105 -72 -179 19 -38 33 -51 71 -66 47 -20 47
-20 94 0 38 15 52 28 71 66 17 34 22 55 17 77 -11 53 -56 95 -120 114 -11 4
-38 -2 -61 -12z m72 -61 c-6 -38 -5 -40 19 -40 14 0 25 -2 25 -5 0 -9 -82
-110 -92 -114 -6 -2 -8 12 -3 38 6 36 5 41 -12 41 -34 0 -33 11 9 66 49 65 63
69 54 14z"/>
</g>
</svg>
