<svg width="32" height="32" viewBox="0 0 32 32" fill="none" xmlns="http://www.w3.org/2000/svg">
<circle cx="16" cy="16" r="14" fill="#0E62AF"/>
<g clip-path="url(#clip0_1815_8381)">
<path d="M22.8392 10.8926H17.8928L19.6492 8.0107C19.8015 7.76085 19.7224 7.43485 19.4725 7.28258C19.2227 7.13025 18.8967 7.2094 18.7444 7.45925L16.652 10.8926H15.3481L13.2556 7.45925C13.1034 7.20947 12.7773 7.13035 12.5275 7.28258C12.2776 7.43488 12.1985 7.76085 12.3508 8.0107L14.1072 10.8926H9.16079C8.52072 10.8926 8 11.4133 8 12.0534V21.6347C8 22.2747 8.52072 22.7954 9.16079 22.7954H22.8392C23.4793 22.7954 24 22.2747 24 21.6347V12.0534C24 11.4133 23.4792 10.8926 22.8392 10.8926ZM19.2204 20.2421C19.2204 20.5906 18.9379 20.8731 18.5894 20.8731H10.5144C10.1659 20.8731 9.8834 20.5906 9.8834 20.2421V13.4459C9.8834 13.0975 10.1659 12.8149 10.5144 12.8149H18.5894C18.9378 12.8149 19.2204 13.0975 19.2204 13.4459V20.2421ZM21.5555 20.0405C20.9518 20.0405 20.4606 19.5493 20.4606 18.9456C20.4606 18.3418 20.9518 17.8506 21.5555 17.8506C22.1593 17.8506 22.6505 18.3418 22.6505 18.9456C22.6505 19.5493 22.1593 20.0405 21.5555 20.0405ZM21.5555 15.8374C20.9518 15.8374 20.4606 15.3462 20.4606 14.7425C20.4606 14.1387 20.9518 13.6476 21.5555 13.6476C22.1593 13.6476 22.6505 14.1387 22.6505 14.7425C22.6505 15.3462 22.1593 15.8374 21.5555 15.8374Z" fill="white"/>
</g>
<defs>
<clipPath id="clip0_1815_8381">
<rect width="16" height="16" fill="white" transform="translate(8 7)"/>
</clipPath>
</defs>
</svg>
