<svg width="24" height="24" viewBox="0 0 24 24" fill="none" xmlns="http://www.w3.org/2000/svg">
<path d="M11.95 18C12.3 18 12.596 17.879 12.838 17.637C13.08 17.395 13.2007 17.0993 13.2 16.75C13.2 16.4 13.0793 16.104 12.838 15.862C12.5967 15.62 12.3007 15.4993 11.95 15.5C11.6 15.5 11.3043 15.621 11.063 15.863C10.8217 16.105 10.7007 16.4007 10.7 16.75C10.7 17.1 10.821 17.396 11.063 17.638C11.305 17.88 11.6007 18.0007 11.95 18ZM12.1 7.7C12.5667 7.7 12.9417 7.829 13.225 8.087C13.5083 8.345 13.65 8.68267 13.65 9.1C13.65 9.38333 13.5543 9.67067 13.363 9.962C13.1717 10.2533 12.9007 10.5577 12.55 10.875C12.05 11.3083 11.6833 11.725 11.45 12.125C11.2167 12.525 11.1 12.925 11.1 13.325C11.1 13.5583 11.1877 13.7543 11.363 13.913C11.5383 14.0717 11.7423 14.1507 11.975 14.15C12.2083 14.15 12.4167 14.0667 12.6 13.9C12.7833 13.7333 12.9 13.525 12.95 13.275C13 12.9917 13.1127 12.729 13.288 12.487C13.4633 12.245 13.7507 11.9327 14.15 11.55C14.6667 11.0667 15.0293 10.625 15.238 10.225C15.4467 9.825 15.5507 9.38333 15.55 8.9C15.55 8.05 15.229 7.35433 14.587 6.813C13.945 6.27167 13.116 6.00067 12.1 6C11.4 6 10.7793 6.13333 10.238 6.4C9.69667 6.66667 9.27567 7.075 8.975 7.625C8.85834 7.84167 8.81667 8.05433 8.85 8.263C8.88334 8.47167 9 8.64233 9.2 8.775C9.41667 8.90833 9.65434 8.95 9.913 8.9C10.1717 8.85 10.384 8.70833 10.55 8.475C10.7333 8.225 10.954 8.03333 11.212 7.9C11.47 7.76667 11.766 7.7 12.1 7.7ZM12 22C10.6333 22 9.34167 21.7373 8.125 21.212C6.90833 20.6867 5.84567 19.9743 4.937 19.075C4.029 18.175 3.31233 17.1167 2.787 15.9C2.26167 14.6833 1.99933 13.3833 2 12C2 10.6167 2.26267 9.31667 2.788 8.1C3.31333 6.88333 4.03 5.825 4.938 4.925C5.846 4.025 6.908 3.31267 8.124 2.788C9.34 2.26333 10.632 2.00067 12 2C13.4 2 14.7083 2.26267 15.925 2.788C17.1417 3.31333 18.2 4.02567 19.1 4.925C20 5.825 20.7083 6.88333 21.225 8.1C21.7417 9.31667 22 10.6167 22 12C22 13.3833 21.7417 14.6833 21.225 15.9C20.7083 17.1167 20 18.175 19.1 19.075C18.2 19.975 17.1417 20.6877 15.925 21.213C14.7083 21.7383 13.4 22.0007 12 22ZM12 20C14.2333 20 16.125 19.221 17.675 17.663C19.225 16.105 20 14.2173 20 12C20 9.78333 19.225 7.89567 17.675 6.337C16.125 4.77833 14.2333 3.99933 12 4C9.81667 4 7.93734 4.779 6.362 6.337C4.78667 7.895 3.99933 9.78267 4 12C4 14.2167 4.78767 16.1043 6.363 17.663C7.93833 19.2217 9.81733 20.0007 12 20Z" fill="white"/>
</svg>
